<svg width="40" height="40" viewBox="0 0 40 40" fill="none" xmlns="http://www.w3.org/2000/svg">
<circle cx="11.6667" cy="28.3333" r="3.33333" stroke="url(#paint0_linear_372_3183)" stroke-width="1.5" stroke-linecap="round" stroke-linejoin="round"/>
<circle cx="28.3333" cy="28.3333" r="3.33333" stroke="url(#paint1_linear_372_3183)" stroke-width="1.5" stroke-linecap="round" stroke-linejoin="round"/>
<path d="M8.33334 29.0833C8.74756 29.0833 9.08334 28.7476 9.08334 28.3333C9.08334 27.9191 8.74756 27.5833 8.33334 27.5833V28.3333V29.0833ZM5.00001 28.3333H4.25001C4.25001 28.7476 4.5858 29.0833 5.00001 29.0833V28.3333ZM5.75001 21.6667C5.75001 21.2525 5.41422 20.9167 5.00001 20.9167C4.5858 20.9167 4.25001 21.2525 4.25001 21.6667H5.00001H5.75001ZM3.33334 7.58334C2.91913 7.58334 2.58334 7.91913 2.58334 8.33334C2.58334 8.74756 2.91913 9.08334 3.33334 9.08334V8.33334V7.58334ZM21.6667 8.33334H22.4167C22.4167 7.91913 22.0809 7.58334 21.6667 7.58334V8.33334ZM20.9167 28.3333C20.9167 28.7476 21.2525 29.0833 21.6667 29.0833C22.0809 29.0833 22.4167 28.7476 22.4167 28.3333H21.6667H20.9167ZM15 27.5833C14.5858 27.5833 14.25 27.9191 14.25 28.3333C14.25 28.7476 14.5858 29.0833 15 29.0833V28.3333V27.5833ZM25 29.0833C25.4142 29.0833 25.75 28.7476 25.75 28.3333C25.75 27.9191 25.4142 27.5833 25 27.5833V28.3333V29.0833ZM31.6667 27.5833C31.2525 27.5833 30.9167 27.9191 30.9167 28.3333C30.9167 28.7476 31.2525 29.0833 31.6667 29.0833V28.3333V27.5833ZM35 28.3333V29.0833C35.4142 29.0833 35.75 28.7476 35.75 28.3333H35ZM35 18.3333H35.75C35.75 17.9191 35.4142 17.5833 35 17.5833V18.3333ZM21.6667 17.5833C21.2525 17.5833 20.9167 17.9191 20.9167 18.3333C20.9167 18.7476 21.2525 19.0833 21.6667 19.0833V18.3333V17.5833ZM21.6667 9.25001C21.2525 9.25001 20.9167 9.5858 20.9167 10C20.9167 10.4142 21.2525 10.75 21.6667 10.75V10V9.25001ZM30 10L30.6431 9.61414C30.5076 9.38823 30.2635 9.25001 30 9.25001V10ZM34.3569 18.7192C34.57 19.0744 35.0307 19.1896 35.3859 18.9765C35.7411 18.7634 35.8562 18.3027 35.6431 17.9475L35 18.3333L34.3569 18.7192ZM8.33334 28.3333V27.5833H5.00001V28.3333V29.0833H8.33334V28.3333ZM5.00001 28.3333H5.75001V21.6667H5.00001H4.25001V28.3333H5.00001ZM3.33334 8.33334V9.08334H21.6667V8.33334V7.58334H3.33334V8.33334ZM21.6667 8.33334H20.9167V28.3333H21.6667H22.4167V8.33334H21.6667ZM15 28.3333V29.0833H25V28.3333V27.5833H15V28.3333ZM31.6667 28.3333V29.0833H35V28.3333V27.5833H31.6667V28.3333ZM35 28.3333H35.75V18.3333H35H34.25V28.3333H35ZM35 18.3333V17.5833H21.6667V18.3333V19.0833H35V18.3333ZM21.6667 10V10.75H30V10V9.25001H21.6667V10ZM30 10L29.3569 10.3859L34.3569 18.7192L35 18.3333L35.6431 17.9475L30.6431 9.61414L30 10Z" fill="url(#paint2_linear_372_3183)"/>
<path d="M5 15H11.6667" stroke="url(#paint3_linear_372_3183)" stroke-width="1.5" stroke-linecap="round" stroke-linejoin="round"/>
<defs>
<linearGradient id="paint0_linear_372_3183" x1="10.0667" y1="26.0222" x2="10.0667" y2="31.1778" gradientUnits="userSpaceOnUse">
<stop stop-color="#FFF4C9"/>
<stop offset="1" stop-color="#FFCC00"/>
</linearGradient>
<linearGradient id="paint1_linear_372_3183" x1="26.7333" y1="26.0222" x2="26.7333" y2="31.1778" gradientUnits="userSpaceOnUse">
<stop stop-color="#FFF4C9"/>
<stop offset="1" stop-color="#FFCC00"/>
</linearGradient>
<linearGradient id="paint2_linear_372_3183" x1="11.5667" y1="11.4" x2="11.5667" y2="26.8667" gradientUnits="userSpaceOnUse">
<stop stop-color="#FFF4C9"/>
<stop offset="1" stop-color="#FFCC00"/>
</linearGradient>
<linearGradient id="paint3_linear_372_3183" x1="6.73333" y1="14.4222" x2="6.73333" y2="15.7111" gradientUnits="userSpaceOnUse">
<stop stop-color="#FFF4C9"/>
<stop offset="1" stop-color="#FFCC00"/>
</linearGradient>
</defs>
</svg>
