<svg width="40" height="40" viewBox="0 0 40 40" fill="none" xmlns="http://www.w3.org/2000/svg">
<g clip-path="url(#clip0_372_538)">
<path d="M36.7622 10.2994C36.7417 9.21941 36.7221 8.1992 36.7221 7.21222C36.7221 6.84089 36.5746 6.48477 36.312 6.2222C36.0494 5.95963 35.6933 5.81212 35.322 5.81212C29.3342 5.81212 24.7753 4.0913 20.9752 0.396519C20.7139 0.142299 20.3637 6.10352e-05 19.9992 6.10352e-05C19.6346 6.10352e-05 19.2844 0.142299 19.0231 0.396519C15.2234 4.0913 10.6653 5.81212 4.67785 5.81212C4.30652 5.81212 3.9504 5.95963 3.68783 6.2222C3.42526 6.48477 3.27775 6.84089 3.27775 7.21222C3.27775 8.19938 3.25834 9.21997 3.23761 10.3001C3.04571 20.3502 2.78286 34.1143 19.5406 39.9229C19.8376 40.0259 20.1606 40.0259 20.4576 39.9229C37.2166 34.1142 36.9541 20.3497 36.7622 10.2994ZM19.9993 37.1143C5.62731 31.8934 5.8446 20.4564 6.03745 10.3535C6.04902 9.74715 6.06022 9.15948 6.06806 8.58339C11.6759 8.34668 16.1604 6.64732 19.9993 3.30313C23.8385 6.64732 28.3237 8.34686 33.932 8.58339C33.9398 9.1593 33.951 9.74659 33.9626 10.3526C34.1552 20.4559 34.3723 31.8932 19.9993 37.1143Z" fill="url(#paint0_linear_372_538)"/>
<path d="M24.8208 15.1365L18.0631 21.8938L15.1795 19.0101C14.9154 18.7548 14.5616 18.6135 14.1944 18.6167C13.8271 18.6198 13.4758 18.7671 13.2161 19.0268C12.9564 19.2865 12.8091 19.6379 12.806 20.0051C12.8029 20.3724 12.9443 20.7262 13.1996 20.9902L17.0732 24.8638C17.203 24.994 17.3574 25.0972 17.5273 25.1676C17.6971 25.238 17.8793 25.274 18.0631 25.2738C18.247 25.274 18.4291 25.238 18.599 25.1676C18.7689 25.0972 18.9232 24.994 19.0531 24.8638L26.8005 17.1166C26.9306 16.9866 27.0337 16.8323 27.1041 16.6625C27.1745 16.4926 27.2108 16.3105 27.2108 16.1267C27.2108 15.9428 27.1746 15.7608 27.1042 15.5909C27.0339 15.421 26.9307 15.2667 26.8007 15.1367C26.5382 14.8741 26.1821 14.7266 25.8108 14.7266C25.4395 14.7265 25.0834 14.874 24.8208 15.1365Z" fill="url(#paint1_linear_372_538)"/>
</g>
<defs>
<linearGradient id="paint0_linear_372_538" x1="11.9333" y1="6.13341" x2="11.9333" y2="37.0668" gradientUnits="userSpaceOnUse">
<stop stop-color="#FFF4C9"/>
<stop offset="1" stop-color="#FFCC00"/>
</linearGradient>
<linearGradient id="paint1_linear_372_538" x1="16.5512" y1="16.3438" x2="16.5512" y2="24.5003" gradientUnits="userSpaceOnUse">
<stop stop-color="#FFF4C9"/>
<stop offset="1" stop-color="#FFCC00"/>
</linearGradient>
<clipPath id="clip0_372_538">
<rect width="40" height="40" fill="white"/>
</clipPath>
</defs>
</svg>
