<svg width="40" height="40" viewBox="0 0 40 40" fill="none" xmlns="http://www.w3.org/2000/svg">
<g clip-path="url(#clip0_372_3201)">
<mask id="path-1-outside-1_372_3201" maskUnits="userSpaceOnUse" x="0.257401" y="0.248505" width="40" height="40" fill="black">
<rect fill="white" x="0.257401" y="0.248505" width="40" height="40"/>
<path d="M5.43125 29.6769C3.22313 26.3844 2.20938 22.3869 2.57875 18.4163C2.65438 17.5438 2.80688 16.6288 3.03063 15.7038C3.23625 14.895 3.49375 14.1163 3.79875 13.385C4.67327 11.2265 5.97713 9.26818 7.63125 7.62876C9.04758 6.19974 10.7032 5.02978 12.5231 4.17188C13.3535 3.78073 14.2135 3.45576 15.095 3.20001C15.8752 2.96992 16.6716 2.79881 17.4775 2.68813C17.5054 2.68453 17.533 2.67868 17.56 2.67063C22.085 2.03688 26.595 3.15563 30.2594 5.82438C30.6181 6.08438 30.9669 6.35813 31.3044 6.64376L29.985 6.71438C29.8213 6.72155 29.6669 6.79275 29.5551 6.91264C29.4434 7.03253 29.3832 7.19152 29.3876 7.35535C29.3919 7.51919 29.4604 7.67476 29.5784 7.78856C29.6963 7.90236 29.8542 7.96528 30.0181 7.96376L30.0525 7.96313L32.8456 7.81376C32.9056 7.81063 32.9619 7.78876 33.0181 7.76813C33.0331 7.76313 33.0494 7.76251 33.0638 7.75626C33.1056 7.73688 33.14 7.70751 33.1769 7.67938C33.2075 7.65688 33.24 7.63876 33.2656 7.61188C33.2694 7.60813 33.275 7.60626 33.2788 7.60188C33.2981 7.58063 33.3056 7.55251 33.3213 7.52876C33.3494 7.48813 33.3775 7.44876 33.3956 7.40188C33.4069 7.37188 33.4075 7.34126 33.4144 7.31001C33.4238 7.26688 33.4406 7.22688 33.4406 7.18126C33.4406 7.17313 33.4363 7.16563 33.4356 7.15688C33.4356 7.15251 33.4375 7.14876 33.4375 7.14438L33.2781 4.36063C33.267 4.19571 33.1917 4.04172 33.0683 3.93175C32.9449 3.82178 32.7832 3.76461 32.6181 3.77251C32.5362 3.77721 32.456 3.79803 32.3821 3.83375C32.3082 3.86948 32.2421 3.91942 32.1876 3.98072C32.133 4.04201 32.091 4.11347 32.0641 4.19099C32.0372 4.26851 32.0258 4.35058 32.0306 4.43251L32.1019 5.68251C31.744 5.3794 31.375 5.08962 30.9956 4.81376C27.0494 1.93938 22.1913 0.743759 17.3131 1.44376C17.2882 1.4474 17.2636 1.45262 17.2394 1.45938C16.3967 1.57861 15.5638 1.7593 14.7475 2.00001C13.8037 2.27413 12.883 2.62208 11.9938 3.04063C10.0424 3.95949 8.26722 5.21325 6.74875 6.74501C4.97794 8.5013 3.58187 10.5986 2.645 12.91C2.30992 13.7199 2.0344 14.5531 1.82063 15.4031C1.5865 16.3566 1.42479 17.3265 1.33688 18.3044C0.941878 22.5569 2.02813 26.8425 4.39688 30.3731C4.44235 30.4415 4.5009 30.5003 4.56917 30.5459C4.63744 30.5916 4.71408 30.6233 4.79466 30.6392C4.87524 30.6552 4.95818 30.655 5.03869 30.6387C5.1192 30.6224 5.19569 30.5904 5.26375 30.5444C5.33193 30.4986 5.39044 30.4399 5.43591 30.3716C5.48139 30.3032 5.51295 30.2265 5.5288 30.146C5.54464 30.0654 5.54446 29.9825 5.52826 29.902C5.51206 29.8216 5.48016 29.745 5.43438 29.6769H5.43125ZM34.7394 9.45563C34.6712 9.50138 34.6127 9.56011 34.5672 9.62846C34.5217 9.69682 34.4902 9.77347 34.4743 9.85403C34.4585 9.93459 34.4587 10.0175 34.4749 10.098C34.4911 10.1785 34.523 10.255 34.5688 10.3231C36.7769 13.6156 37.7906 17.6131 37.4213 21.5838C37.3387 22.498 37.1876 23.4047 36.9694 24.2963C36.77 25.0868 36.5133 25.8618 36.2013 26.615C35.3267 28.7735 34.0229 30.7318 32.3688 32.3713C30.9524 33.8003 29.2968 34.9702 27.4769 35.8281C26.6465 36.2193 25.7865 36.5443 24.905 36.8C24.1248 37.0301 23.3284 37.2012 22.5225 37.3119C22.4946 37.3155 22.467 37.3213 22.44 37.3294C17.9131 37.9613 13.405 36.8444 9.74063 34.1756C9.38191 33.9155 9.03312 33.642 8.695 33.3556L10.015 33.2825C10.097 33.278 10.1773 33.2574 10.2513 33.2219C10.3253 33.1864 10.3916 33.1366 10.4463 33.0754C10.5011 33.0142 10.5432 32.9428 10.5703 32.8653C10.5974 32.7878 10.609 32.7057 10.6044 32.6238C10.5949 32.4585 10.5203 32.3037 10.397 32.1932C10.2736 32.0828 10.1116 32.0257 9.94625 32.0344L7.15688 32.1888C7.0749 32.1932 6.9946 32.2138 6.92059 32.2494C6.84658 32.2849 6.7803 32.3347 6.72556 32.3959C6.67081 32.4571 6.62867 32.5285 6.60155 32.606C6.57443 32.6835 6.56286 32.7655 6.5675 32.8475L6.72125 35.6369C6.73003 35.7963 6.79948 35.9463 6.91535 36.0561C7.03122 36.166 7.18473 36.2273 7.34438 36.2275L7.37938 36.2269C7.46139 36.2225 7.54172 36.202 7.61577 36.1664C7.68982 36.1309 7.75613 36.0811 7.81089 36.0199C7.86565 35.9587 7.90779 35.8873 7.93488 35.8098C7.96197 35.7322 7.97348 35.6501 7.96875 35.5681L7.9 34.32C8.255 34.6194 8.62063 34.9088 9.00563 35.1875C12.1869 37.5094 16.0247 38.7582 19.9631 38.7531C20.8663 38.7531 21.7769 38.6881 22.6875 38.5575C22.7124 38.5539 22.737 38.5486 22.7613 38.5419C23.6039 38.4227 24.4368 38.242 25.2531 38.0013C26.1969 37.7271 27.1177 37.3792 28.0069 36.9606C29.9582 36.0418 31.7334 34.788 33.2519 33.2563C35.0227 31.5 36.4188 29.4027 37.3556 27.0913C37.6907 26.2814 37.9662 25.4481 38.18 24.5981C38.4206 23.605 38.5838 22.6275 38.6638 21.6969C39.0588 17.4444 37.9725 13.1588 35.6038 9.62813C35.5582 9.55984 35.4996 9.50123 35.4313 9.45567C35.363 9.4101 35.2863 9.37848 35.2058 9.36263C35.1252 9.34677 35.0423 9.34699 34.9619 9.36328C34.8814 9.37956 34.8049 9.41158 34.7369 9.45751L34.7394 9.45563Z"/>
</mask>
<path d="M5.43125 29.6769C3.22313 26.3844 2.20938 22.3869 2.57875 18.4163C2.65438 17.5438 2.80688 16.6288 3.03063 15.7038C3.23625 14.895 3.49375 14.1163 3.79875 13.385C4.67327 11.2265 5.97713 9.26818 7.63125 7.62876C9.04758 6.19974 10.7032 5.02978 12.5231 4.17188C13.3535 3.78073 14.2135 3.45576 15.095 3.20001C15.8752 2.96992 16.6716 2.79881 17.4775 2.68813C17.5054 2.68453 17.533 2.67868 17.56 2.67063C22.085 2.03688 26.595 3.15563 30.2594 5.82438C30.6181 6.08438 30.9669 6.35813 31.3044 6.64376L29.985 6.71438C29.8213 6.72155 29.6669 6.79275 29.5551 6.91264C29.4434 7.03253 29.3832 7.19152 29.3876 7.35535C29.3919 7.51919 29.4604 7.67476 29.5784 7.78856C29.6963 7.90236 29.8542 7.96528 30.0181 7.96376L30.0525 7.96313L32.8456 7.81376C32.9056 7.81063 32.9619 7.78876 33.0181 7.76813C33.0331 7.76313 33.0494 7.76251 33.0638 7.75626C33.1056 7.73688 33.14 7.70751 33.1769 7.67938C33.2075 7.65688 33.24 7.63876 33.2656 7.61188C33.2694 7.60813 33.275 7.60626 33.2788 7.60188C33.2981 7.58063 33.3056 7.55251 33.3213 7.52876C33.3494 7.48813 33.3775 7.44876 33.3956 7.40188C33.4069 7.37188 33.4075 7.34126 33.4144 7.31001C33.4238 7.26688 33.4406 7.22688 33.4406 7.18126C33.4406 7.17313 33.4363 7.16563 33.4356 7.15688C33.4356 7.15251 33.4375 7.14876 33.4375 7.14438L33.2781 4.36063C33.267 4.19571 33.1917 4.04172 33.0683 3.93175C32.9449 3.82178 32.7832 3.76461 32.6181 3.77251C32.5362 3.77721 32.456 3.79803 32.3821 3.83375C32.3082 3.86948 32.2421 3.91942 32.1876 3.98072C32.133 4.04201 32.091 4.11347 32.0641 4.19099C32.0372 4.26851 32.0258 4.35058 32.0306 4.43251L32.1019 5.68251C31.744 5.3794 31.375 5.08962 30.9956 4.81376C27.0494 1.93938 22.1913 0.743759 17.3131 1.44376C17.2882 1.4474 17.2636 1.45262 17.2394 1.45938C16.3967 1.57861 15.5638 1.7593 14.7475 2.00001C13.8037 2.27413 12.883 2.62208 11.9938 3.04063C10.0424 3.95949 8.26722 5.21325 6.74875 6.74501C4.97794 8.5013 3.58187 10.5986 2.645 12.91C2.30992 13.7199 2.0344 14.5531 1.82063 15.4031C1.5865 16.3566 1.42479 17.3265 1.33688 18.3044C0.941878 22.5569 2.02813 26.8425 4.39688 30.3731C4.44235 30.4415 4.5009 30.5003 4.56917 30.5459C4.63744 30.5916 4.71408 30.6233 4.79466 30.6392C4.87524 30.6552 4.95818 30.655 5.03869 30.6387C5.1192 30.6224 5.19569 30.5904 5.26375 30.5444C5.33193 30.4986 5.39044 30.4399 5.43591 30.3716C5.48139 30.3032 5.51295 30.2265 5.5288 30.146C5.54464 30.0654 5.54446 29.9825 5.52826 29.902C5.51206 29.8216 5.48016 29.745 5.43438 29.6769H5.43125ZM34.7394 9.45563C34.6712 9.50138 34.6127 9.56011 34.5672 9.62846C34.5217 9.69682 34.4902 9.77347 34.4743 9.85403C34.4585 9.93459 34.4587 10.0175 34.4749 10.098C34.4911 10.1785 34.523 10.255 34.5688 10.3231C36.7769 13.6156 37.7906 17.6131 37.4213 21.5838C37.3387 22.498 37.1876 23.4047 36.9694 24.2963C36.77 25.0868 36.5133 25.8618 36.2013 26.615C35.3267 28.7735 34.0229 30.7318 32.3688 32.3713C30.9524 33.8003 29.2968 34.9702 27.4769 35.8281C26.6465 36.2193 25.7865 36.5443 24.905 36.8C24.1248 37.0301 23.3284 37.2012 22.5225 37.3119C22.4946 37.3155 22.467 37.3213 22.44 37.3294C17.9131 37.9613 13.405 36.8444 9.74063 34.1756C9.38191 33.9155 9.03312 33.642 8.695 33.3556L10.015 33.2825C10.097 33.278 10.1773 33.2574 10.2513 33.2219C10.3253 33.1864 10.3916 33.1366 10.4463 33.0754C10.5011 33.0142 10.5432 32.9428 10.5703 32.8653C10.5974 32.7878 10.609 32.7057 10.6044 32.6238C10.5949 32.4585 10.5203 32.3037 10.397 32.1932C10.2736 32.0828 10.1116 32.0257 9.94625 32.0344L7.15688 32.1888C7.0749 32.1932 6.9946 32.2138 6.92059 32.2494C6.84658 32.2849 6.7803 32.3347 6.72556 32.3959C6.67081 32.4571 6.62867 32.5285 6.60155 32.606C6.57443 32.6835 6.56286 32.7655 6.5675 32.8475L6.72125 35.6369C6.73003 35.7963 6.79948 35.9463 6.91535 36.0561C7.03122 36.166 7.18473 36.2273 7.34438 36.2275L7.37938 36.2269C7.46139 36.2225 7.54172 36.202 7.61577 36.1664C7.68982 36.1309 7.75613 36.0811 7.81089 36.0199C7.86565 35.9587 7.90779 35.8873 7.93488 35.8098C7.96197 35.7322 7.97348 35.6501 7.96875 35.5681L7.9 34.32C8.255 34.6194 8.62063 34.9088 9.00563 35.1875C12.1869 37.5094 16.0247 38.7582 19.9631 38.7531C20.8663 38.7531 21.7769 38.6881 22.6875 38.5575C22.7124 38.5539 22.737 38.5486 22.7613 38.5419C23.6039 38.4227 24.4368 38.242 25.2531 38.0013C26.1969 37.7271 27.1177 37.3792 28.0069 36.9606C29.9582 36.0418 31.7334 34.788 33.2519 33.2563C35.0227 31.5 36.4188 29.4027 37.3556 27.0913C37.6907 26.2814 37.9662 25.4481 38.18 24.5981C38.4206 23.605 38.5838 22.6275 38.6638 21.6969C39.0588 17.4444 37.9725 13.1588 35.6038 9.62813C35.5582 9.55984 35.4996 9.50123 35.4313 9.45567C35.363 9.4101 35.2863 9.37848 35.2058 9.36263C35.1252 9.34677 35.0423 9.34699 34.9619 9.36328C34.8814 9.37956 34.8049 9.41158 34.7369 9.45751L34.7394 9.45563Z" fill="url(#paint0_linear_372_3201)"/>
<path d="M5.43125 29.6769C3.22313 26.3844 2.20938 22.3869 2.57875 18.4163C2.65438 17.5438 2.80688 16.6288 3.03063 15.7038C3.23625 14.895 3.49375 14.1163 3.79875 13.385C4.67327 11.2265 5.97713 9.26818 7.63125 7.62876C9.04758 6.19974 10.7032 5.02978 12.5231 4.17188C13.3535 3.78073 14.2135 3.45576 15.095 3.20001C15.8752 2.96992 16.6716 2.79881 17.4775 2.68813C17.5054 2.68453 17.533 2.67868 17.56 2.67063C22.085 2.03688 26.595 3.15563 30.2594 5.82438C30.6181 6.08438 30.9669 6.35813 31.3044 6.64376L29.985 6.71438C29.8213 6.72155 29.6669 6.79275 29.5551 6.91264C29.4434 7.03253 29.3832 7.19152 29.3876 7.35535C29.3919 7.51919 29.4604 7.67476 29.5784 7.78856C29.6963 7.90236 29.8542 7.96528 30.0181 7.96376L30.0525 7.96313L32.8456 7.81376C32.9056 7.81063 32.9619 7.78876 33.0181 7.76813C33.0331 7.76313 33.0494 7.76251 33.0638 7.75626C33.1056 7.73688 33.14 7.70751 33.1769 7.67938C33.2075 7.65688 33.24 7.63876 33.2656 7.61188C33.2694 7.60813 33.275 7.60626 33.2788 7.60188C33.2981 7.58063 33.3056 7.55251 33.3213 7.52876C33.3494 7.48813 33.3775 7.44876 33.3956 7.40188C33.4069 7.37188 33.4075 7.34126 33.4144 7.31001C33.4238 7.26688 33.4406 7.22688 33.4406 7.18126C33.4406 7.17313 33.4363 7.16563 33.4356 7.15688C33.4356 7.15251 33.4375 7.14876 33.4375 7.14438L33.2781 4.36063C33.267 4.19571 33.1917 4.04172 33.0683 3.93175C32.9449 3.82178 32.7832 3.76461 32.6181 3.77251C32.5362 3.77721 32.456 3.79803 32.3821 3.83375C32.3082 3.86948 32.2421 3.91942 32.1876 3.98072C32.133 4.04201 32.091 4.11347 32.0641 4.19099C32.0372 4.26851 32.0258 4.35058 32.0306 4.43251L32.1019 5.68251C31.744 5.3794 31.375 5.08962 30.9956 4.81376C27.0494 1.93938 22.1913 0.743759 17.3131 1.44376C17.2882 1.4474 17.2636 1.45262 17.2394 1.45938C16.3967 1.57861 15.5638 1.7593 14.7475 2.00001C13.8037 2.27413 12.883 2.62208 11.9938 3.04063C10.0424 3.95949 8.26722 5.21325 6.74875 6.74501C4.97794 8.5013 3.58187 10.5986 2.645 12.91C2.30992 13.7199 2.0344 14.5531 1.82063 15.4031C1.5865 16.3566 1.42479 17.3265 1.33688 18.3044C0.941878 22.5569 2.02813 26.8425 4.39688 30.3731C4.44235 30.4415 4.5009 30.5003 4.56917 30.5459C4.63744 30.5916 4.71408 30.6233 4.79466 30.6392C4.87524 30.6552 4.95818 30.655 5.03869 30.6387C5.1192 30.6224 5.19569 30.5904 5.26375 30.5444C5.33193 30.4986 5.39044 30.4399 5.43591 30.3716C5.48139 30.3032 5.51295 30.2265 5.5288 30.146C5.54464 30.0654 5.54446 29.9825 5.52826 29.902C5.51206 29.8216 5.48016 29.745 5.43438 29.6769H5.43125ZM34.7394 9.45563C34.6712 9.50138 34.6127 9.56011 34.5672 9.62846C34.5217 9.69682 34.4902 9.77347 34.4743 9.85403C34.4585 9.93459 34.4587 10.0175 34.4749 10.098C34.4911 10.1785 34.523 10.255 34.5688 10.3231C36.7769 13.6156 37.7906 17.6131 37.4213 21.5838C37.3387 22.498 37.1876 23.4047 36.9694 24.2963C36.77 25.0868 36.5133 25.8618 36.2013 26.615C35.3267 28.7735 34.0229 30.7318 32.3688 32.3713C30.9524 33.8003 29.2968 34.9702 27.4769 35.8281C26.6465 36.2193 25.7865 36.5443 24.905 36.8C24.1248 37.0301 23.3284 37.2012 22.5225 37.3119C22.4946 37.3155 22.467 37.3213 22.44 37.3294C17.9131 37.9613 13.405 36.8444 9.74063 34.1756C9.38191 33.9155 9.03312 33.642 8.695 33.3556L10.015 33.2825C10.097 33.278 10.1773 33.2574 10.2513 33.2219C10.3253 33.1864 10.3916 33.1366 10.4463 33.0754C10.5011 33.0142 10.5432 32.9428 10.5703 32.8653C10.5974 32.7878 10.609 32.7057 10.6044 32.6238C10.5949 32.4585 10.5203 32.3037 10.397 32.1932C10.2736 32.0828 10.1116 32.0257 9.94625 32.0344L7.15688 32.1888C7.0749 32.1932 6.9946 32.2138 6.92059 32.2494C6.84658 32.2849 6.7803 32.3347 6.72556 32.3959C6.67081 32.4571 6.62867 32.5285 6.60155 32.606C6.57443 32.6835 6.56286 32.7655 6.5675 32.8475L6.72125 35.6369C6.73003 35.7963 6.79948 35.9463 6.91535 36.0561C7.03122 36.166 7.18473 36.2273 7.34438 36.2275L7.37938 36.2269C7.46139 36.2225 7.54172 36.202 7.61577 36.1664C7.68982 36.1309 7.75613 36.0811 7.81089 36.0199C7.86565 35.9587 7.90779 35.8873 7.93488 35.8098C7.96197 35.7322 7.97348 35.6501 7.96875 35.5681L7.9 34.32C8.255 34.6194 8.62063 34.9088 9.00563 35.1875C12.1869 37.5094 16.0247 38.7582 19.9631 38.7531C20.8663 38.7531 21.7769 38.6881 22.6875 38.5575C22.7124 38.5539 22.737 38.5486 22.7613 38.5419C23.6039 38.4227 24.4368 38.242 25.2531 38.0013C26.1969 37.7271 27.1177 37.3792 28.0069 36.9606C29.9582 36.0418 31.7334 34.788 33.2519 33.2563C35.0227 31.5 36.4188 29.4027 37.3556 27.0913C37.6907 26.2814 37.9662 25.4481 38.18 24.5981C38.4206 23.605 38.5838 22.6275 38.6638 21.6969C39.0588 17.4444 37.9725 13.1588 35.6038 9.62813C35.5582 9.55984 35.4996 9.50123 35.4313 9.45567C35.363 9.4101 35.2863 9.37848 35.2058 9.36263C35.1252 9.34677 35.0423 9.34699 34.9619 9.36328C34.8814 9.37956 34.8049 9.41158 34.7369 9.45751L34.7394 9.45563Z" stroke="black" stroke-width="2" mask="url(#path-1-outside-1_372_3201)"/>
<path d="M20.0316 7.9281C20.2289 7.92817 20.4225 7.98054 20.5932 8.07947L29.9936 13.4984H29.9926C30.0564 13.5348 30.1134 13.5808 30.1664 13.6312C30.1959 13.653 30.2234 13.6774 30.2484 13.7045L30.2572 13.7142C30.3147 13.7799 30.3929 13.8785 30.4486 14.015C30.4603 14.0399 30.4703 14.0651 30.4789 14.0912C30.5179 14.1873 30.541 14.2887 30.5473 14.392C30.5513 14.4164 30.5561 14.444 30.5561 14.475V25.0873C30.5561 25.1501 30.5456 25.2025 30.5385 25.2328C30.5339 25.2646 30.5217 25.3523 30.4857 25.4506L30.4867 25.4515C30.4689 25.5049 30.4432 25.5751 30.3979 25.6508L30.391 25.6615L30.3852 25.6713C30.3838 25.6733 30.3811 25.6768 30.3754 25.6859C30.3709 25.6932 30.3614 25.7075 30.352 25.722C30.3373 25.7445 30.3139 25.7756 30.2836 25.8109L30.2846 25.8119C30.2819 25.8152 30.2784 25.8185 30.2758 25.8217C30.2667 25.8319 30.2579 25.8434 30.2475 25.8539L30.2465 25.8529C30.2136 25.8879 30.1842 25.9149 30.1625 25.932C30.1508 25.9413 30.1381 25.9493 30.1313 25.9545C30.11 25.9769 30.0624 26.0232 29.9926 26.0629L29.9936 26.0638L20.5316 31.5326L20.4877 31.558L20.4398 31.5746L20.4418 31.5736C20.438 31.5751 20.4301 31.5768 20.4203 31.5804C20.4181 31.5814 20.4162 31.5836 20.4145 31.5844C20.4095 31.5864 20.4045 31.5877 20.4008 31.5892L20.3793 31.601L20.3461 31.6117C20.2598 31.6405 20.1277 31.681 19.9691 31.681C19.8209 31.681 19.6899 31.6452 19.5922 31.6107V31.6117C19.5909 31.6113 19.5896 31.6102 19.5883 31.6097C19.5855 31.6087 19.5823 31.6088 19.5795 31.6078V31.6068C19.5621 31.6007 19.5482 31.5949 19.5414 31.5922V31.5931L19.4301 31.556L19.392 31.5179L10.0063 26.1019V26.1C9.93873 26.0614 9.89241 26.0165 9.87051 25.9935C9.84554 25.9736 9.8011 25.9339 9.7543 25.8832L9.75235 25.8851C9.68605 25.8188 9.64497 25.7515 9.61465 25.6967C9.57129 25.6328 9.54549 25.573 9.52872 25.5277C9.52568 25.5206 9.52367 25.5132 9.5209 25.5062C9.51877 25.5 9.51487 25.495 9.51309 25.4896L9.51407 25.4886C9.47807 25.3903 9.46589 25.3028 9.46133 25.2709L9.45938 25.2562C9.458 25.2499 9.45585 25.2429 9.4545 25.2357C9.44983 25.2108 9.44378 25.1722 9.44376 25.1254V14.5092L9.4545 14.3636C9.47437 14.2186 9.52203 14.078 9.5961 13.9506C9.69474 13.781 9.83636 13.6405 10.0063 13.5424L19.4691 8.07947C19.6399 7.98042 19.8342 7.9281 20.0316 7.9281ZM20.3949 31.5922C20.3933 31.5928 20.3926 31.5939 20.392 31.5941C20.3926 31.5939 20.3954 31.5922 20.3998 31.5902C20.3977 31.5911 20.396 31.5917 20.3949 31.5922ZM11.6938 24.4789L18.8441 28.6088V20.5883L11.6938 16.4652V24.4789ZM26.1938 17.6439V19.7816C26.1936 20.4013 25.6885 20.9066 25.0688 20.9066C24.4395 20.9066 23.9439 20.3981 23.9438 19.7816V18.9408L21.0941 20.5883V28.6088L28.3061 24.4418V16.4222L26.1938 17.6439ZM12.8188 14.5131L19.9623 18.641L22.8178 16.9935L15.6684 12.8705L12.8188 14.5131ZM17.9184 11.5687L25.0678 15.6976L27.1811 14.476L20.0307 10.3519L17.9184 11.5687Z" fill="url(#paint1_linear_372_3201)" stroke="black"/>
</g>
<defs>
<linearGradient id="paint0_linear_372_3201" x1="11.0037" y1="6.99922" x2="11.0037" y2="36.0028" gradientUnits="userSpaceOnUse">
<stop stop-color="#FFF4C9"/>
<stop offset="1" stop-color="#FFCC00"/>
</linearGradient>
<linearGradient id="paint1_linear_372_3201" x1="15.173" y1="11.9169" x2="15.173" y2="29.5127" gradientUnits="userSpaceOnUse">
<stop stop-color="#FFF4C9"/>
<stop offset="1" stop-color="#FFCC00"/>
</linearGradient>
<clipPath id="clip0_372_3201">
<rect width="40" height="40" fill="white"/>
</clipPath>
</defs>
</svg>
