<svg width="196" height="54" viewBox="0 0 196 54" fill="none" xmlns="http://www.w3.org/2000/svg">
<path d="M137.024 17.0174C137.176 17.0174 137.339 16.9926 137.486 17.0421C137.762 17.1341 137.985 17.357 138.107 17.617C138.199 17.8133 138.192 18.0716 138.114 18.2714C137.981 18.6181 137.687 18.7844 137.369 18.9294C137.127 18.9683 136.907 18.9471 136.69 18.8286C136.462 18.703 136.288 18.4625 136.221 18.2131C136.156 17.9707 136.205 17.6736 136.338 17.4613C136.508 17.1889 136.723 17.0828 137.024 17.0174Z" fill="#C80000"/>
<path d="M138.693 17.8894C138.792 17.9106 138.857 17.9885 138.919 18.0663C139.48 18.7685 139.678 19.7272 139.565 20.6063C139.517 20.9724 139.45 21.3262 139.291 21.6622C138.544 23.2347 136.56 23.8326 135.304 24.9186C134.432 25.6739 133.816 26.629 133.583 27.7699C133.526 28.0458 133.519 28.3412 133.5 28.6207C132.835 27.4869 132.435 26.1514 132.55 24.8302C132.796 22.0213 135.827 21.2006 137.674 19.6476C138.081 19.3062 138.482 18.9135 138.627 18.3847C138.672 18.229 138.679 18.0539 138.693 17.8894Z" fill="#C80000"/>
<path d="M144.775 7.76842C144.828 7.76665 144.795 7.76488 144.872 7.78433C145.078 8.17524 145.198 8.64043 145.338 9.05787L146.466 12.928C147.032 15.0311 147.45 17.2102 147.637 19.3805C147.757 20.7655 147.805 22.1186 147.639 23.5018C147.511 24.5543 147.25 25.5766 146.933 26.5848C146.641 27.5188 146.307 28.4209 145.813 29.2716C144.784 31.0457 143.233 32.6005 141.204 33.1294C139.632 33.5397 138.282 33.1683 136.922 32.3741C135.929 31.7763 134.796 30.8423 134.355 29.7351C133.174 26.7582 136.472 25.0106 138.549 23.7389C139.428 23.2011 140.33 22.6298 141.124 21.9718C142.428 20.8911 143.53 19.423 144.193 17.8647C145.559 14.6561 145.247 11.0601 143.969 7.87454L144.775 7.76842Z" fill="#C80000"/>
<path d="M144.543 5.56439C146.499 5.57902 148.367 6.61619 149.696 7.96185L149.928 8.20306C151.063 9.42134 151.895 10.848 152.528 12.3808C153.568 14.8968 154.033 17.5526 154.012 20.2646C154.001 21.7946 153.735 23.3646 153.325 24.83C152.905 26.3356 152.327 27.8224 151.549 29.1865C150.191 31.5685 148.274 33.5972 146.064 35.1982L146.059 35.2021L144.04 36.5214L144.034 36.5253C143.73 36.7061 143.371 36.8743 143.054 37.0449C142.728 37.2202 142.428 37.4065 142.196 37.6396C141.851 37.9883 141.544 38.4233 141.415 38.8798C141.322 39.2118 141.297 39.595 141.296 39.9941C141.295 40.1929 141.301 40.3934 141.307 40.5917C141.312 40.7892 141.318 40.9853 141.318 41.1718V44.122C141.318 44.4753 141.289 44.7978 141.318 45.1201C141.347 45.4313 141.43 45.7098 141.643 45.9462C141.736 46.0505 141.841 46.1306 141.96 46.1865L142.085 46.2343C142.214 46.2745 142.349 46.3006 142.489 46.3222L142.923 46.3828L142.927 46.3837L144.146 46.6064L144.15 46.6074C145.88 46.9814 147.586 47.5804 149.147 48.4208C149.499 48.6103 149.894 48.8009 150.205 49.1122L150.569 49.4765L150.066 49.3652C149.863 49.32 149.663 49.2363 149.476 49.1494C149.282 49.0596 149.111 48.9706 148.936 48.8964H148.935L147.376 48.3007H147.375C145.148 47.5484 142.696 47.2538 140.345 47.1816L140.199 47.1777V47.0322L140.205 37.6357V37.6269L140.206 37.6181C140.278 37.0321 140.669 36.5147 141.079 36.1611C141.225 36.0345 141.389 35.9328 141.554 35.8437L142.041 35.6005L142.972 35.0937C143.882 34.5786 144.783 33.9971 145.615 33.3671C149.255 30.6084 151.464 26.3942 152.075 21.8935C152.44 19.2029 152.07 16.3207 151.157 13.7656C150.701 12.4863 150.099 11.2544 149.277 10.1786C148.622 9.31996 147.782 8.48962 146.828 8.00482C146.173 7.67144 145.469 7.49001 144.735 7.38861C144.024 7.34304 143.303 7.36713 142.576 7.36713L142.577 7.3681L138.847 7.37885H138.846L136.465 7.37006H136.464C135.915 7.36645 135.373 7.33833 134.849 7.39545C134.288 7.45699 133.733 7.63412 133.218 7.87787C131.047 8.90487 129.534 11.3909 128.735 13.6171C128.13 15.3051 127.751 17.1775 127.691 18.9667C127.655 20.0675 127.749 21.1809 127.92 22.2724C128.559 26.3787 130.519 30.368 133.786 32.9951C134.507 33.5736 135.287 34.1046 136.093 34.5566C136.311 34.6792 136.539 34.7938 136.771 34.9081C137.001 35.022 137.237 35.1367 137.468 35.2587C137.929 35.503 138.381 35.7824 138.763 36.165C139.097 36.4997 139.34 36.9013 139.541 37.3095L139.597 37.4335C139.614 37.4795 139.627 37.5306 139.632 37.5878L139.633 37.5888C139.658 37.9119 139.631 38.2658 139.631 38.5663L139.629 40.6181L139.631 47.0322V47.1728L139.49 47.1816L137.594 47.2968L137.593 47.2958C135.81 47.4772 134.04 47.8478 132.347 48.4267L132.346 48.4257L131.065 48.9091C130.879 48.9909 130.672 49.1129 130.435 49.2343C130.207 49.351 129.955 49.4649 129.719 49.4931L129.355 49.5361L129.584 49.2499C129.732 49.0653 129.938 48.9182 130.145 48.7949C130.348 48.673 130.574 48.5628 130.749 48.4677C132.421 47.5579 134.257 46.9142 136.121 46.54L136.127 46.539L137.647 46.2988C137.97 46.2426 138.214 46.0766 138.403 45.7978H138.404C138.518 45.6322 138.586 45.4485 138.608 45.249L138.622 45.0439C138.629 44.837 138.62 44.6237 138.62 44.4023V44.4013L138.623 42.912L138.629 40.538C138.629 40.4268 138.632 40.311 138.635 40.1953C138.638 40.0785 138.641 39.9611 138.642 39.8447C138.643 39.6113 138.633 39.388 138.593 39.1894L138.555 39.0273C138.34 38.224 137.777 37.5062 137.068 37.0634C136.804 36.899 136.521 36.7559 136.23 36.6142C135.942 36.4735 135.643 36.3328 135.358 36.1757C134.794 35.864 134.24 35.519 133.707 35.1503L133.182 34.7744C131.856 33.7954 130.643 32.5478 129.664 31.2265C126.636 27.1355 125.293 21.8266 126.063 16.7812C126.627 13.0858 128.227 9.15722 131.366 6.87592L131.566 6.73529C132.572 6.05259 133.648 5.70627 134.861 5.57806L134.869 5.57709H134.877L144.541 5.56439H144.543Z" fill="black" stroke="black" stroke-width="0.3"/>
<path d="M13.2473 35.8196L6.55523 20.06H4.81836V18.3231H13.1196V20.06H10.2844L16.0314 33.8273H14.882L20.6801 20.06H17.896V18.3231H24.8435V20.06H23.0811L16.4145 35.8196H13.2473Z" fill="#111111"/>
<path d="M24.5408 35.743V34.0061H26.9928V20.06H24.5919V18.3231H32.8676V20.06H30.4666V34.0061H32.9186V35.743H24.5408Z" fill="#111111"/>
<path d="M43.0559 36.1261C41.1147 36.1261 39.3949 35.777 37.8964 35.0789C36.4149 34.3637 35.2655 33.3335 34.4482 31.9882C33.6308 30.626 33.2222 28.9743 33.2222 27.033C33.2222 25.0918 33.6308 23.4486 34.4482 22.1034C35.2655 20.7411 36.4149 19.7109 37.8964 19.0128C39.3949 18.2976 41.1147 17.94 43.0559 17.94C45.0312 17.94 46.751 18.2976 48.2155 19.0128C49.6969 19.7109 50.8463 20.7411 51.6637 22.1034C52.4981 23.4486 52.9152 25.0918 52.9152 27.033C52.9152 28.9743 52.4981 30.626 51.6637 31.9882C50.8463 33.3335 49.6969 34.3637 48.2155 35.0789C46.751 35.777 45.0312 36.1261 43.0559 36.1261ZM43.0559 34.1338C44.299 34.1338 45.3718 33.8613 46.2743 33.3164C47.1767 32.7545 47.8664 31.9457 48.3432 30.8899C48.82 29.8342 49.0584 28.5486 49.0584 27.033C49.0584 25.5175 48.82 24.2319 48.3432 23.1762C47.8664 22.1204 47.1767 21.3201 46.2743 20.7752C45.3718 20.2133 44.299 19.9323 43.0559 19.9323C41.8299 19.9323 40.7656 20.2133 39.8631 20.7752C38.9607 21.3201 38.2625 22.1204 37.7687 23.1762C37.2919 24.2319 37.0535 25.5175 37.0535 27.033C37.0535 28.5486 37.2919 29.8342 37.7687 30.8899C38.2625 31.9457 38.9607 32.7545 39.8631 33.3164C40.7656 33.8613 41.8299 34.1338 43.0559 34.1338Z" fill="#111111"/>
<path d="M53.3311 35.743V34.0061H55.6044V20.0089H53.3822V18.2721H59.0781V34.0061H61.4025V35.743H53.3311ZM67.5837 35.9728C66.6642 35.9728 65.9149 35.8111 65.336 35.4875C64.757 35.147 64.3228 34.6787 64.0333 34.0827C63.7438 33.4867 63.565 32.7886 63.4969 31.9882L63.3948 30.8388C63.3266 29.8172 63.0712 29.0935 62.6285 28.6678C62.1857 28.242 61.5302 28.0292 60.6617 28.0292H59.0781V27.5439H62.9861C64.3994 27.5269 65.3956 27.8759 65.9745 28.5911C66.5535 29.2893 66.86 30.3025 66.894 31.6307L66.9196 32.3458C66.9366 32.7715 67.0303 33.1206 67.2006 33.3931C67.3879 33.6655 67.7029 33.8017 68.1456 33.8017C68.5883 33.8017 68.8949 33.674 69.0651 33.4186C69.2524 33.1462 69.3461 32.7886 69.3461 32.3458V28.9743H71.4661V32.0393C71.4661 33.2143 71.1596 34.1679 70.5466 34.9001C69.9336 35.6152 68.9459 35.9728 67.5837 35.9728ZM59.0781 28.0292V26.1391H63.7779C64.9188 26.1391 65.8128 25.8922 66.4598 25.3983C67.1069 24.9045 67.4304 24.1553 67.4304 23.1506C67.4304 22.146 67.1069 21.3967 66.4598 20.9029C65.8128 20.4091 64.9188 20.1622 63.7779 20.1622H59.0781V18.2721H64.8507C66.6897 18.2721 68.1626 18.6637 69.2695 19.447C70.3933 20.2133 70.9553 21.3797 70.9553 22.9463C70.9553 24.4958 70.4018 25.6623 69.295 26.4456C68.1882 27.2289 66.7323 27.6205 64.9273 27.6205H63.0882L62.654 28.0292H59.0781Z" fill="#111111"/>
<path d="M71.3989 35.743V34.0061H73.1357L79.8278 18.2721H82.9695L89.6871 34.0061H91.424V35.743H83.1228V34.0061H85.9324L80.1854 20.2899H81.3348L75.5367 34.0061H78.3464V35.743H71.3989ZM76.5073 30.4813V28.5656H85.0895V30.4813H76.5073Z" fill="#111111"/>
<path d="M113.484 35.8196L107.916 20.06H106.256V18.3231H114.2V20.06H111.39L116.09 33.8273H114.838L119.614 20.06H116.805V18.3231H123.676V20.06H121.99L116.422 35.8196H113.484ZM103.574 35.8196L98.0313 20.06H96.3199V18.3231H103.906V20.06H101.684L106.358 33.8273H105.106L109.5 21.235L110.598 24.3L106.588 35.8196H103.574Z" fill="#C80000"/>
<path d="M170.737 35.743L160.06 22.8697L160.698 18.3231L170.762 30.4813L170.737 35.743ZM155.59 35.743V34.0061H157.863V20.06H155.641V18.3231H160.698L160.06 22.8697V34.0061H162.512V35.743H155.59ZM170.737 35.743L170.634 30.4813H170.762V20.06H168.361V18.3231H175.181V20.06H172.984V35.743H170.737Z" fill="#C80000"/>
<path d="M175.135 35.743V34.0061H177.408V20.06H175.186V18.3231H180.882V35.743H175.135ZM180.882 35.743V33.8273H191.584V35.743H180.882ZM184.662 29.9193C184.662 29.119 184.5 28.54 184.177 28.1825C183.87 27.8249 183.351 27.6461 182.619 27.6461H186.476V31.4774H184.662V29.9193ZM180.882 27.6461V25.7559H186.476V27.6461H180.882ZM187.421 33.8273C188.238 33.8273 188.808 33.6485 189.132 33.2909C189.455 32.9163 189.617 32.2948 189.617 31.4263V29.4596H191.584V33.8273H187.421ZM182.619 25.7559C183.351 25.7559 183.87 25.5857 184.177 25.2451C184.5 24.9045 184.662 24.3256 184.662 23.5082V22.5632H186.476V25.7559H182.619ZM180.882 20.2133V18.3231H191.38V20.2133H180.882ZM189.413 22.6398C189.413 21.7713 189.243 21.1498 188.902 20.7752C188.579 20.4006 188.017 20.2133 187.216 20.2133H191.38V24.3767H189.413V22.6398Z" fill="#C80000"/>
</svg>
